<svg width="82" height="41" viewBox="0 0 82 41" xmlns="http://www.w3.org/2000/svg"><title>128C377A-CCB4-42B3-8E6A-4876023872ED</title><g fill="#BEBEBE" fill-rule="evenodd"><path d="M35.43 16.988c.042-.105.084-.274.084-.38 0-.569-.438-.843-.897-.843-.396 0-.646.19-.792.633l-1.834 5.674-2.106-5.716c-.125-.359-.354-.591-.792-.591-.437 0-.667.232-.792.59l-2.084 5.717-1.835-5.674c-.146-.443-.396-.633-.792-.633-.459 0-.896.274-.896.844 0 .105.041.274.083.38l2.564 7.698c.083.337.354.57.813.57.459 0 .709-.253.834-.59l2.105-5.844 2.126 5.843c.126.358.396.59.835.59.437 0 .687-.21.812-.569l2.564-7.699zm-19.115 6.508l-3.033-3.05 3.033-3.051c.384-.388.413-.985 0-1.402-.412-.418-1.002-.388-1.385 0l-3.691 3.734a.992.992 0 0 0-.289.718.992.992 0 0 0 .289.719l3.691 3.734c.383.388.973.418 1.385 0 .413-.417.384-1.014 0-1.402zm-5.83.698v-7.51a.971.971 0 0 0-.98-.99.971.971 0 0 0-.979.99v7.51c0 .548.396.991.98.991.583 0 .98-.443.98-.99zm8.294-7.438v7.509c0 .549.396.992.98.992s.98-.443.98-.992v-7.509a.972.972 0 0 0-.98-.991.972.972 0 0 0-.98.991zm18.723 7.509c0 .549.396.992.98.992s.98-.443.98-.992v-7.509a.972.972 0 0 0-.98-.991.972.972 0 0 0-.98.991v7.509zm43.602-8.419c-.339 0-.637.203-.797.544l-2.854 6.046-.025-.053-2.86-6.005c-.198-.363-.453-.532-.805-.532a.857.857 0 0 0-.861.872v7.561c0 .48.394.885.86.885a.892.892 0 0 0 .875-.885v-4.017l2.06 4.416c.165.332.405.486.757.486a.815.815 0 0 0 .758-.49l2.031-4.412v4.03a.867.867 0 1 0 1.736 0v-7.56c0-.53-.352-.886-.875-.886zm-14.585-.053c-2.632 0-4.617 2.026-4.617 4.712 0 2.687 1.985 4.713 4.617 4.713 2.633 0 4.618-2.026 4.618-4.713 0-2.686-1.985-4.712-4.618-4.712zm0 7.742c-1.826 0-2.782-1.524-2.782-3.03 0-1.988 1.4-3.029 2.782-3.029 1.827 0 2.783 1.524 2.783 3.03 0 1.988-1.4 3.029-2.783 3.029zm-9.122-6.012c.878 0 1.39.339 1.88.717.196.136.387.203.585.203.476 0 .834-.37.834-.858 0-.228-.091-.432-.279-.623-.7-.732-1.828-1.17-3.02-1.17-2.703 0-4.591 1.939-4.591 4.713 0 2.775 1.888 4.713 4.59 4.713 1.193 0 2.32-.436 3.016-1.165.191-.194.284-.399.284-.627 0-.49-.358-.858-.834-.858-.199 0-.394.07-.6.213-.462.358-.988.707-1.865.707-1.62 0-2.75-1.227-2.75-2.983s1.13-2.982 2.75-2.982z"/><path d="M44.261 29.2a1.447 1.447 0 0 0-.871-.291 1.47 1.47 0 0 0-1.183.604c-1.843 2.526-4.444 4.644-7.524 6.124-3.202 1.54-6.862 2.355-10.594 2.355-5.696 0-11.038-1.854-15.041-5.22-1.922-1.613-3.428-3.486-4.475-5.567-1.072-2.13-1.616-4.39-1.617-6.717 0-2.326.545-4.586 1.617-6.717 1.576-3.133 4.205-5.807 7.6-7.734 3.52-1.998 7.643-3.054 11.923-3.054 3.732 0 7.401.818 10.61 2.366 3.086 1.488 5.69 3.615 7.528 6.15a1.47 1.47 0 0 0 1.186.608c.314 0 .614-.1.868-.288a1.5 1.5 0 0 0 .315-2.078c-2.127-2.93-5.112-5.378-8.632-7.076C32.369.928 28.263.01 24.096.01c-6.38.001-12.39 2.098-16.925 5.905C4.94 7.79 3.185 9.978 1.954 12.421.67 14.972.017 17.686.018 20.488c-.001 2.802.65 5.516 1.936 8.067 1.844 3.659 4.881 6.763 8.783 8.977 3.957 2.246 8.577 3.433 13.36 3.434 4.155 0 8.252-.914 11.848-2.643 3.514-1.69 6.497-4.126 8.626-7.044a1.5 1.5 0 0 0-.31-2.08zm2.35-9.869a1.63 1.63 0 0 0-1.618 1.638 1.63 1.63 0 0 0 1.618 1.637 1.63 1.63 0 0 0 1.618-1.637 1.63 1.63 0 0 0-1.618-1.638z"/></g></svg>