<svg width="77" height="38" viewBox="0 0 77 38" xmlns="http://www.w3.org/2000/svg"><title>6575ECBF-539B-4F25-8737-C82C40284A62</title><g fill="none" fill-rule="evenodd"><path d="M33.27 15.745c.039-.098.078-.254.078-.351 0-.528-.41-.782-.841-.782-.372 0-.607.176-.744.586l-1.723 5.259-1.977-5.298c-.117-.332-.333-.547-.744-.547-.41 0-.626.215-.743.547l-1.958 5.298-1.722-5.259c-.138-.41-.372-.586-.744-.586-.431 0-.842.254-.842.782 0 .097.039.253.078.351l2.408 7.136c.078.312.333.528.763.528.431 0 .666-.235.783-.548l1.977-5.415 1.997 5.415c.117.332.372.548.783.548.411 0 .646-.196.763-.528l2.408-7.136zM12.472 18.95l2.849-2.828c.36-.36.387-.913 0-1.3a.896.896 0 0 0-1.301 0l-3.466 3.462a.913.913 0 0 0-.271.665c-.004.24.085.48.27.666l3.467 3.461c.36.36.913.388 1.3 0 .388-.387.36-.94 0-1.299l-2.848-2.827zm-2.626-3.486a.906.906 0 0 0-.92-.919c-.529 0-.92.41-.92.92v6.959c0 .508.372.918.92.918s.92-.41.92-.918v-6.96zm7.788 7.026c0 .508.372.919.92.919s.92-.411.92-.92V15.53a.906.906 0 0 0-.92-.918c-.528 0-.92.41-.92.918v6.96zm17.581 0v-6.96c0-.508.392-.918.92-.918.529 0 .92.41.92.918v6.96c0 .508-.371.919-.92.919a.895.895 0 0 1-.92-.92zm40.195-7.3c.15-.315.43-.503.749-.503.491 0 .82.33.82.82v7.008c0 .453-.36.808-.82.808a.81.81 0 0 1-.809-.808V18.78l-1.907 4.088a.766.766 0 0 1-.712.455c-.33 0-.556-.143-.71-.45l-1.935-4.094v3.724c0 .444-.376.82-.82.82a.825.825 0 0 1-.81-.82v-7.008a.8.8 0 0 1 .81-.808c.33 0 .57.156.755.492l2.686 5.566.023.05 2.68-5.605zm-17.283 3.815c0-2.49 1.864-4.368 4.336-4.368 2.472 0 4.336 1.878 4.336 4.368s-1.864 4.367-4.336 4.367c-2.472 0-4.336-1.877-4.336-4.367zm1.724 0c0 1.395.897 2.808 2.612 2.808 1.299 0 2.614-.965 2.614-2.808 0-1.395-.898-2.808-2.614-2.808-1.298 0-2.612.965-2.612 2.808zm-4.189-2.1c-.46-.35-.94-.665-1.765-.665-1.52 0-2.583 1.137-2.583 2.765 0 1.628 1.063 2.764 2.583 2.764.824 0 1.317-.323 1.752-.655a.978.978 0 0 1 .563-.198c.446 0 .783.342.783.796 0 .211-.087.401-.267.58-.653.677-1.712 1.08-2.83 1.08-2.54 0-4.312-1.796-4.312-4.367 0-2.572 1.773-4.368 4.311-4.368 1.12 0 2.18.406 2.836 1.084.177.177.262.366.262.577a.772.772 0 0 1-.783.795.954.954 0 0 1-.55-.188z" fill="#454D54"/><path d="M41.562 27.063c.613.451.743 1.316.291 1.927-2 2.705-4.8 4.962-8.1 6.53-3.376 1.601-7.224 2.448-11.126 2.448-4.49 0-8.829-1.1-12.545-3.182-3.664-2.052-6.515-4.93-8.247-8.32C.628 24.1.015 21.586.016 18.989c0-2.597.612-5.112 1.82-7.477 1.155-2.264 2.803-4.293 4.897-6.03C10.992 1.954 16.636.01 22.627.01c3.913 0 7.769.851 11.15 2.461 3.306 1.574 6.11 3.842 8.106 6.558a1.378 1.378 0 1 1-2.225 1.63c-1.726-2.35-4.17-4.321-7.068-5.7-3.013-1.435-6.458-2.193-9.963-2.193-4.02 0-7.89.979-11.195 2.83-3.19 1.786-5.658 4.264-7.138 7.168-1.007 1.975-1.517 4.07-1.518 6.226 0 2.157.511 4.251 1.518 6.226.984 1.928 2.397 3.664 4.202 5.16 3.76 3.12 8.775 4.837 14.124 4.837 3.505 0 6.942-.754 9.948-2.182 2.892-1.372 5.335-3.335 7.065-5.676.26-.351.675-.56 1.111-.56.296 0 .58.093.818.269zm2.207-9.146c.838 0 1.52.68 1.52 1.517a1.52 1.52 0 0 1-3.04 0 1.52 1.52 0 0 1 1.52-1.517z" fill="#00D7BD"/></g></svg>